<svg width="144" height="40" viewBox="0 0 144 40" fill="none" xmlns="http://www.w3.org/2000/svg">
<path d="M60.165 13.7548V16.0038H54.757V13.7548H60.165ZM53.171 18.0058H54.757V17.4858H60.165V17.9928H61.829V12.2858H53.171V18.0058ZM58.826 8.08682C59.229 8.43782 59.658 8.82782 60.074 9.24382C58.579 9.30882 57.071 9.37382 55.667 9.42582C56.291 8.47682 56.941 7.38482 57.487 6.35782L55.706 5.78582C55.264 6.92982 54.523 8.35982 53.795 9.49082C53.067 9.50382 52.391 9.52982 51.793 9.54282L51.884 11.1028C54.302 11.0118 57.929 10.8688 61.361 10.6868C61.712 11.1158 61.998 11.5188 62.193 11.8698L63.532 10.8428C62.869 9.72482 61.322 8.22982 60.035 7.17682L58.826 8.08682ZM72.879 6.09782H70.617V6.83882H72.879V6.09782ZM67.367 7.34582C66.977 6.92982 66.132 6.38382 65.495 6.03282L64.611 7.08582C65.261 7.47582 66.067 8.07382 66.431 8.50282L67.367 7.34582ZM67.12 10.6608C66.691 10.2578 65.846 9.75082 65.183 9.43882L64.338 10.5178C64.988 10.8688 65.833 11.4408 66.21 11.8438L67.12 10.6608ZM66.002 17.8628C66.522 16.6018 67.055 15.0938 67.471 13.7028L66.249 12.9228C65.768 14.4438 65.105 16.0818 64.637 17.0958L66.002 17.8628ZM72.06 11.6228H71.41V11.0508H72.06V11.6228ZM68.368 12.4288H69.343V9.84182L69.746 9.80282C69.772 9.93282 69.785 10.0498 69.798 10.1538L70.5 9.89382C70.448 9.49082 70.266 8.86682 70.045 8.39882L69.395 8.63282C69.434 8.73682 69.473 8.85382 69.512 8.97082L68.953 8.98382C69.356 8.52882 69.772 7.99582 70.149 7.50182V7.96982H73.256V7.82682C73.555 8.08682 73.841 8.39882 74.036 8.65882C73.919 8.78882 73.802 8.93182 73.698 9.04882L73.087 9.06182L73.178 9.99782L74.296 9.93282V10.4138L73.451 10.2188C73.347 10.6998 73.204 11.2198 72.996 11.6488V10.3618H70.513V12.3118H72.996V11.8828C73.23 11.9868 73.542 12.1558 73.698 12.2728C73.919 11.8568 74.153 11.2328 74.296 10.6478V12.4288H75.284V9.88082L75.791 9.84182C75.817 9.95882 75.843 10.0628 75.856 10.1538L76.636 9.81582C76.545 9.38682 76.298 8.74982 76.038 8.28182L75.297 8.58082C75.362 8.71082 75.427 8.85382 75.492 8.99682L74.777 9.00982C75.245 8.50282 75.739 7.90482 76.168 7.37182L75.31 6.89082C75.141 7.18982 74.907 7.52782 74.647 7.87882C74.569 7.78782 74.478 7.68382 74.374 7.59282C74.647 7.21582 74.946 6.73482 75.245 6.29282L74.361 5.86382C74.218 6.18882 73.984 6.65682 73.763 7.05982L73.594 6.92982L73.256 7.38482V7.16382H70.149V7.38482L69.369 6.94282C69.226 7.20282 69.031 7.48882 68.823 7.80082C68.745 7.70982 68.641 7.63182 68.55 7.54082C68.797 7.16382 69.083 6.70882 69.356 6.26682L68.485 5.82482C68.342 6.17582 68.121 6.64382 67.9 7.03382C67.835 6.99482 67.757 6.94282 67.692 6.90382L67.211 7.65782C67.562 7.91782 67.952 8.26882 68.238 8.58082C68.121 8.73682 67.991 8.89282 67.874 9.03582L67.081 9.06182L67.185 9.99782C67.549 9.97182 67.952 9.94582 68.368 9.90682V10.4138L67.51 10.2188C67.393 10.8038 67.211 11.4278 66.912 11.8958C67.146 11.9868 67.536 12.1818 67.731 12.2988C67.978 11.8698 68.212 11.2328 68.368 10.6478V12.4288ZM75.323 10.4528C75.544 10.9858 75.778 11.6748 75.856 12.1298L76.675 11.8568C76.571 11.4148 76.324 10.7388 76.103 10.2188L75.323 10.4528ZM70.526 10.0108H72.996V9.30882H70.526V10.0108ZM72.996 8.30782H70.526V9.00982H72.996V8.30782ZM70.474 11.6358C70.409 11.2718 70.266 10.6998 70.123 10.2708L69.382 10.4398C69.512 10.8948 69.642 11.4798 69.694 11.8568L70.474 11.6358ZM69.564 15.2108L69.668 14.8078H75.427V12.6498H68.056V13.5208H73.997V13.9238H68.446C68.29 14.7298 68.043 15.6918 67.809 16.3548L69.2 16.5368C69.239 16.4198 69.278 16.2898 69.317 16.1598H74.439C74.322 16.5238 74.205 16.7318 74.062 16.8358C73.932 16.9268 73.776 16.9398 73.516 16.9398C73.191 16.9398 72.333 16.9268 71.553 16.8488C71.774 17.1738 71.943 17.6418 71.969 17.9798C72.775 18.0058 73.568 18.0188 73.984 18.0058C74.504 17.9798 74.868 17.9148 75.193 17.6678C75.544 17.3818 75.778 16.8098 75.986 15.7698C76.038 15.5878 76.064 15.2108 76.064 15.2108H69.564ZM84.501 6.82582C85.45 8.60682 86.945 10.6608 88.167 11.9738C88.466 11.5448 89.064 10.9468 89.467 10.6218C88.284 9.52982 86.802 7.70982 86.048 6.18882L84.501 6.82582ZM80.848 6.16282C80.172 7.96982 78.95 9.75082 77.611 10.8038C78.014 11.0508 78.781 11.6358 79.093 11.9608C80.419 10.7258 81.784 8.71082 82.616 6.66982L80.848 6.16282ZM84.722 13.4558C85.203 14.0928 85.723 14.8338 86.191 15.5618C84.683 15.6398 83.162 15.7178 81.758 15.7828C82.551 14.3788 83.396 12.6368 84.072 11.0378L82.213 10.6088C81.719 12.2338 80.822 14.3138 79.99 15.8608L78.183 15.9258L78.391 17.5508C80.679 17.4468 83.955 17.2518 87.075 17.0438C87.296 17.4208 87.478 17.7718 87.608 18.0838L89.22 17.2388C88.583 15.9908 87.361 14.1578 86.23 12.7538L84.722 13.4558ZM93.393 12.9488V12.1558H95.655V12.9488H93.393ZM93.393 10.2058H95.655V10.9988H93.393V10.2058ZM99.516 10.2058V10.9988H97.241V10.2058H99.516ZM99.516 12.9488H97.241V12.1558H99.516V12.9488ZM102.428 14.8858H97.241V14.1838H101.076V8.97082H97.241V8.34682H102.051V6.94282H97.241V5.88982H95.655V6.94282H90.936V8.34682H95.655V8.97082H91.911V14.1838H95.655V14.8858H90.624V16.2768H95.655V18.0318H97.241V16.2768H102.428V14.8858ZM110.316 9.65982C111.295 9.65982 112.071 9.94148 112.643 10.5048C113.215 11.0595 113.501 11.8525 113.501 12.8838V13.8198H108.925C108.942 14.3658 109.103 14.7948 109.406 15.1068C109.718 15.4188 110.147 15.5748 110.693 15.5748C111.144 15.5748 111.555 15.5315 111.928 15.4448C112.309 15.3495 112.699 15.2065 113.098 15.0158V16.5108C112.743 16.6842 112.374 16.8098 111.993 16.8878C111.612 16.9745 111.148 17.0178 110.602 17.0178C109.891 17.0178 109.263 16.8878 108.717 16.6278C108.171 16.3592 107.742 15.9605 107.43 15.4318C107.118 14.8945 106.962 14.2142 106.962 13.3908C106.962 12.5675 107.101 11.8785 107.378 11.3238C107.664 10.7692 108.058 10.3532 108.561 10.0758C109.064 9.79848 109.649 9.65982 110.316 9.65982ZM110.329 11.0378C109.948 11.0378 109.636 11.1592 109.393 11.4018C109.15 11.6445 109.007 12.0215 108.964 12.5328H111.681C111.672 12.1082 111.555 11.7528 111.33 11.4668C111.113 11.1808 110.78 11.0378 110.329 11.0378ZM119.476 7.94382C119.658 8.52882 119.788 9.25682 119.814 9.75082L120.503 9.54282C120.464 9.03582 120.295 8.26882 120.087 7.67082L119.476 7.85282V7.30682H120.568V10.1278H119.476V7.94382ZM122.622 7.87882L121.998 7.65782C121.907 8.17782 121.686 8.93182 121.504 9.45182V7.30682H122.622V7.87882ZM121.504 10.1278V9.56882L122.037 9.76382C122.206 9.38682 122.414 8.82782 122.622 8.28182V10.1278H121.504ZM118.072 14.8988C119.645 14.8338 121.868 14.7168 123.974 14.5868L124 13.3908C123.246 13.4168 122.466 13.4558 121.712 13.4818V12.9098H123.792V11.7398H121.712V11.1678H123.818V6.26682H118.319V11.1678H120.347V11.7398H118.345V12.9098H120.347V13.5338C119.476 13.5598 118.683 13.5858 118.033 13.5988L118.072 14.8988ZM118.748 18.0188C119.294 17.4208 119.515 16.4328 119.671 15.5098L118.631 15.1978C118.514 16.0558 118.215 16.9528 117.747 17.4988L118.748 18.0188ZM119.762 15.2758C119.905 16.0038 120.009 16.9398 119.983 17.5508L120.984 17.4338C120.971 16.8098 120.867 15.8868 120.711 15.1588L119.762 15.2758ZM121.062 15.2238C121.309 15.9128 121.53 16.8098 121.582 17.3948L122.544 17.1998C122.466 16.6018 122.232 15.7308 121.985 15.0418L121.062 15.2238ZM122.323 15.1068C122.726 15.7568 123.116 16.6148 123.272 17.1868L124.247 16.7838C124.078 16.2118 123.662 15.3798 123.246 14.7688L122.323 15.1068ZM128.082 16.1078H125.677V13.3908H128.082V16.1078ZM129.993 9.98482V8.55482H127.484V5.88982H125.976V11.9868H124.273V18.0058H125.677V17.4988H128.082V17.9538H129.564V11.9868H127.484V9.98482H129.993ZM138.079 10.2448V10.9468H136.584V10.2448H138.079ZM140.991 10.9468H139.457V10.2448H140.991V10.9468ZM139.457 12.7538V12.0258H140.991V12.7538H139.457ZM136.584 12.7538V12.0258H138.079V12.7538H136.584ZM136.584 13.8718H138.079V15.7698H139.457V13.8718H140.991V14.4698C140.991 14.5998 140.952 14.6518 140.796 14.6648C140.666 14.6648 140.211 14.6648 139.808 14.6518C139.977 14.9768 140.133 15.4838 140.185 15.8608C140.965 15.8608 141.524 15.8608 141.94 15.6398C142.356 15.4318 142.473 15.1068 142.473 14.4828V9.12682H140.9C140.679 8.99682 140.406 8.86682 140.12 8.72382C140.965 8.20382 141.784 7.57982 142.434 6.96882L141.511 6.22782L141.212 6.30582H135.245V7.47582H139.873C139.548 7.70982 139.197 7.95682 138.833 8.16482C138.3 7.93082 137.754 7.72282 137.299 7.55382L136.298 8.38582C136.831 8.59382 137.455 8.85382 138.04 9.12682H135.128V15.8218H136.584V13.8718ZM134.413 8.15182C133.945 7.52782 132.944 6.69582 132.151 6.14982L131.085 7.13782C131.878 7.73582 132.853 8.63282 133.256 9.25682L134.413 8.15182ZM134.023 10.9208H130.89V12.3378H132.541V15.1718C131.943 15.6138 131.28 16.0428 130.721 16.3548L131.436 17.9018C132.164 17.3558 132.775 16.8488 133.373 16.3418C134.153 17.3428 135.18 17.7198 136.74 17.7848C138.326 17.8498 141.082 17.8238 142.681 17.7458C142.746 17.3168 142.98 16.6018 143.162 16.2378C141.381 16.3808 138.3 16.4198 136.753 16.3548C135.427 16.3028 134.53 15.9388 134.023 15.0678V10.9208Z" fill="black"/>
<path d="M57.7227 26.88H55.2861V33.4767H54.6855V26.88H52.2539V26.3673H57.7227V26.88ZM61.9166 33.4767C61.858 33.3107 61.8206 33.0649 61.8043 32.7394C61.5992 33.0063 61.3372 33.213 61.0182 33.3595C60.7024 33.5027 60.3671 33.5743 60.0123 33.5743C59.5045 33.5743 59.0927 33.4327 58.777 33.1495C58.4645 32.8663 58.3082 32.5083 58.3082 32.0753C58.3082 31.561 58.5214 31.1541 58.9479 30.8546C59.3775 30.5551 59.9749 30.4054 60.7398 30.4054H61.7994V29.8048C61.7994 29.4272 61.6822 29.131 61.4479 28.9161C61.2167 28.698 60.8782 28.589 60.4322 28.589C60.0253 28.589 59.6884 28.6932 59.4215 28.9015C59.1546 29.1098 59.0211 29.3605 59.0211 29.6534L58.4352 29.6486C58.4352 29.2286 58.6305 28.8657 59.0211 28.5597C59.4117 28.2504 59.8919 28.0958 60.4615 28.0958C61.0507 28.0958 61.5146 28.2439 61.8531 28.5402C62.1949 28.8331 62.3707 29.2433 62.3805 29.7706V32.2706C62.3805 32.7817 62.4342 33.1642 62.5416 33.4181V33.4767H61.9166ZM60.0807 33.0568C60.4713 33.0568 60.8196 32.9624 61.1256 32.7736C61.4348 32.5848 61.6594 32.3325 61.7994 32.0167V30.8546H60.7545C60.1718 30.8611 59.7161 30.9685 59.3873 31.1769C59.0585 31.382 58.8941 31.6652 58.8941 32.0265C58.8941 32.3227 59.0032 32.5685 59.2213 32.7638C59.4426 32.9591 59.7291 33.0568 60.0807 33.0568ZM64.9973 33.4767H64.4113V28.1935H64.9973V33.4767ZM64.3088 26.6652C64.3088 26.5545 64.3446 26.4617 64.4162 26.3868C64.4878 26.3087 64.5855 26.2697 64.7092 26.2697C64.8329 26.2697 64.9305 26.3087 65.0021 26.3868C65.077 26.4617 65.1145 26.5545 65.1145 26.6652C65.1145 26.7758 65.077 26.8686 65.0021 26.9435C64.9305 27.0184 64.8329 27.0558 64.7092 27.0558C64.5855 27.0558 64.4878 27.0184 64.4162 26.9435C64.3446 26.8686 64.3088 26.7758 64.3088 26.6652ZM68.2537 32.2609L68.3416 32.715L68.4588 32.2365L69.7283 28.1935H70.2264L71.4812 32.2023L71.618 32.7589L71.7303 32.2462L72.8143 28.1935H73.4197L71.8816 33.4767H71.3836L70.0262 29.2872L69.9627 28.9991L69.8992 29.2921L68.5662 33.4767H68.0682L66.535 28.1935H67.1355L68.2537 32.2609ZM78.2631 33.4767C78.2045 33.3107 78.1671 33.0649 78.1508 32.7394C77.9457 33.0063 77.6837 33.213 77.3646 33.3595C77.0489 33.5027 76.7136 33.5743 76.3588 33.5743C75.851 33.5743 75.4392 33.4327 75.1234 33.1495C74.8109 32.8663 74.6547 32.5083 74.6547 32.0753C74.6547 31.561 74.8679 31.1541 75.2943 30.8546C75.724 30.5551 76.3214 30.4054 77.0863 30.4054H78.1459V29.8048C78.1459 29.4272 78.0287 29.131 77.7943 28.9161C77.5632 28.698 77.2247 28.589 76.7787 28.589C76.3718 28.589 76.0349 28.6932 75.768 28.9015C75.501 29.1098 75.3676 29.3605 75.3676 29.6534L74.7816 29.6486C74.7816 29.2286 74.977 28.8657 75.3676 28.5597C75.7582 28.2504 76.2383 28.0958 76.808 28.0958C77.3972 28.0958 77.8611 28.2439 78.1996 28.5402C78.5414 28.8331 78.7172 29.2433 78.727 29.7706V32.2706C78.727 32.7817 78.7807 33.1642 78.8881 33.4181V33.4767H78.2631ZM76.4271 33.0568C76.8178 33.0568 77.1661 32.9624 77.4721 32.7736C77.7813 32.5848 78.0059 32.3325 78.1459 32.0167V30.8546H77.101C76.5183 30.8611 76.0626 30.9685 75.7338 31.1769C75.405 31.382 75.2406 31.6652 75.2406 32.0265C75.2406 32.3227 75.3497 32.5685 75.5678 32.7638C75.7891 32.9591 76.0756 33.0568 76.4271 33.0568ZM81.2461 28.1935L81.2656 29.0968C81.4642 28.7713 81.7116 28.5239 82.0078 28.3546C82.304 28.1821 82.6312 28.0958 82.9893 28.0958C83.5557 28.0958 83.9772 28.2553 84.2539 28.5743C84.5306 28.8934 84.6706 29.3719 84.6738 30.0099V33.4767H84.0928V30.005C84.0895 29.533 83.9886 29.1814 83.79 28.9503C83.5947 28.7192 83.2806 28.6036 82.8477 28.6036C82.4863 28.6036 82.1657 28.7176 81.8857 28.9454C81.609 29.17 81.404 29.4744 81.2705 29.8585V33.4767H80.6895V28.1935H81.2461ZM89.5559 33.4767V26.3673H91.6555C92.4172 26.3673 92.995 26.5252 93.3889 26.8409C93.7827 27.1534 93.9797 27.6157 93.9797 28.2277C93.9797 28.5955 93.8788 28.9161 93.677 29.1896C93.4784 29.4598 93.2049 29.6534 92.8566 29.7706C93.2701 29.8618 93.6021 30.0652 93.8527 30.381C94.1066 30.6967 94.2336 31.0613 94.2336 31.4747C94.2336 32.103 94.0301 32.5945 93.6232 32.9493C93.2196 33.3009 92.6564 33.4767 91.9338 33.4767H89.5559ZM90.1564 30.0587V32.9689H91.9582C92.4725 32.9689 92.8794 32.8387 93.1789 32.5782C93.4816 32.3146 93.633 31.95 93.633 31.4845C93.633 31.045 93.4882 30.6984 93.1984 30.4445C92.912 30.1873 92.5148 30.0587 92.007 30.0587H90.1564ZM90.1564 29.5558H91.7971C92.2984 29.546 92.6857 29.4288 92.9592 29.2042C93.2359 28.9764 93.3742 28.646 93.3742 28.213C93.3742 27.7573 93.231 27.422 92.9445 27.2072C92.6613 26.9891 92.2316 26.88 91.6555 26.88H90.1564V29.5558ZM99.3504 32.8077C98.9988 33.3188 98.4373 33.5743 97.6658 33.5743C97.1027 33.5743 96.6746 33.4116 96.3816 33.0861C96.0887 32.7573 95.9389 32.2723 95.9324 31.631V28.1935H96.5135V31.5577C96.5135 32.5636 96.9204 33.0665 97.7342 33.0665C98.5805 33.0665 99.116 32.7166 99.3406 32.0167V28.1935H99.9266V33.4767H99.3602L99.3504 32.8077ZM105.014 32.1339C105.014 31.8442 104.897 31.6115 104.662 31.4357C104.431 31.2599 104.081 31.1232 103.613 31.0255C103.144 30.9246 102.779 30.8107 102.519 30.6837C102.262 30.5535 102.07 30.3956 101.943 30.2101C101.819 30.0245 101.757 29.7999 101.757 29.5363C101.757 29.1196 101.931 28.7762 102.28 28.506C102.628 28.2325 103.074 28.0958 103.618 28.0958C104.207 28.0958 104.679 28.2423 105.034 28.5353C105.392 28.825 105.571 29.2042 105.571 29.673H104.985C104.985 29.3637 104.855 29.1066 104.594 28.9015C104.337 28.6964 104.011 28.5939 103.618 28.5939C103.233 28.5939 102.924 28.6801 102.69 28.8527C102.459 29.0219 102.343 29.2433 102.343 29.5167C102.343 29.7804 102.439 29.9855 102.631 30.132C102.827 30.2752 103.18 30.407 103.691 30.5275C104.205 30.6479 104.589 30.7765 104.843 30.9132C105.1 31.0499 105.291 31.2143 105.414 31.4064C105.538 31.5984 105.6 31.8312 105.6 32.1046C105.6 32.5506 105.419 32.907 105.058 33.174C104.7 33.4409 104.231 33.5743 103.652 33.5743C103.037 33.5743 102.537 33.4262 102.153 33.13C101.772 32.8305 101.581 32.4529 101.581 31.9972H102.167C102.19 32.339 102.333 32.6059 102.597 32.798C102.864 32.9868 103.216 33.0812 103.652 33.0812C104.059 33.0812 104.387 32.9917 104.638 32.8126C104.889 32.6336 105.014 32.4073 105.014 32.1339ZM109.633 29.8634H111.796V30.4103H109.633V32.7638H109.042V30.4103H106.923V29.8634H109.042V27.588H109.633V29.8634Z" fill="black"/>
<g clip-path="url(#clip0_971_7452)">
<path d="M28.348 40H11.652C5.2459 40 0 34.7541 0 28.348V11.652C0 5.2459 5.2459 0 11.652 0H28.348C34.7541 0 40 5.2459 40 11.652V28.348C40 34.7541 34.7541 40 28.348 40Z" fill="#355F8B"/>
<path d="M26.6078 31.2736H25.599C25.145 31.2736 24.7667 30.8953 24.7667 30.4413V29.4325C24.7667 28.9785 25.145 28.6002 25.599 28.6002H26.6078C27.0618 28.6002 27.4401 28.9785 27.4401 29.4325V30.4413C27.4401 30.8953 27.087 31.2736 26.6078 31.2736Z" fill="white"/>
<path d="M14.401 31.2736H13.3922C12.9382 31.2736 12.5599 30.8953 12.5599 30.4413V29.4325C12.5599 28.9785 12.9382 28.6002 13.3922 28.6002H14.401C14.855 28.6002 15.2333 28.9785 15.2333 29.4325V30.4413C15.2081 30.8953 14.855 31.2736 14.401 31.2736Z" fill="white"/>
<path d="M24.9938 24.6154H23.985C23.531 24.6154 23.1527 24.2371 23.1527 23.7831V22.7743C23.1527 22.3203 23.531 21.942 23.985 21.942H24.9938C25.4478 21.942 25.8261 22.3203 25.8261 22.7743V23.7831C25.8261 24.2371 25.4478 24.6154 24.9938 24.6154Z" fill="white"/>
<path d="M15.99 24.6154H14.9812C14.5272 24.6154 14.1489 24.2371 14.1489 23.7831V22.7743C14.1489 22.3203 14.5272 21.942 14.9812 21.942H15.99C16.444 21.942 16.8223 22.3203 16.8223 22.7743V23.7831C16.8223 24.2371 16.444 24.6154 15.99 24.6154Z" fill="white"/>
<path d="M10.2901 15.6619H7.66714C7.23839 15.6619 6.91052 15.3341 6.91052 14.9053C6.91052 14.4766 7.23839 14.1487 7.66714 14.1487H10.2649C10.6936 14.1487 11.0215 14.4766 11.0215 14.9053C11.0467 15.3088 10.6936 15.6619 10.2901 15.6619Z" fill="white"/>
<path d="M32.3077 15.6619H29.71C29.2812 15.6619 28.9534 15.3341 28.9534 14.9053C28.9534 14.4766 29.2812 14.1487 29.71 14.1487H32.3077C32.7365 14.1487 33.0643 14.4766 33.0643 14.9053C33.0643 15.3088 32.7365 15.6619 32.3077 15.6619Z" fill="white"/>
<path d="M27.4401 29.3568H12.5599C10.8954 29.3568 9.53345 27.9949 9.53345 26.3304V12.5094C9.53345 10.4161 11.2232 8.72632 13.3165 8.72632H26.6835C28.7768 8.72632 30.4666 10.4161 30.4666 12.5094V18.1841C30.4666 18.6128 30.1387 18.9407 29.71 18.9407H11.0467V26.3304C11.0467 27.1626 11.7276 27.8436 12.5599 27.8436H27.4401C28.2724 27.8436 28.9534 27.1626 28.9534 26.3304V21.7402C28.9534 21.3114 29.2812 20.9836 29.71 20.9836C30.1387 20.9836 30.4666 21.3114 30.4666 21.7402V26.3304C30.4666 27.9949 29.1047 29.3568 27.4401 29.3568ZM11.0467 17.4275H28.9534V12.5094C28.9534 11.2484 27.9445 10.2396 26.6835 10.2396H13.3165C12.0555 10.2396 11.0467 11.2484 11.0467 12.5094V17.4275Z" fill="white"/>
</g>
<defs>
<clipPath id="clip0_971_7452">
<rect width="40" height="40" fill="white"/>
</clipPath>
</defs>
</svg>
