<svg width="35" height="35" viewBox="0 0 35 35" fill="none" xmlns="http://www.w3.org/2000/svg">
<path d="M2.91667 17.5C2.91667 25.5544 9.44563 32.0833 17.5 32.0833C25.5544 32.0833 32.0833 25.5544 32.0833 17.5C32.0833 9.44562 25.5544 2.91666 17.5 2.91666C9.44563 2.91666 2.91667 9.44562 2.91667 17.5Z" stroke="black" stroke-width="1.5" stroke-linecap="round" stroke-linejoin="round"/>
<path d="M18.9583 2.98956C18.9583 2.98956 23.3333 8.74998 23.3333 17.5C23.3333 26.25 18.9583 32.0104 18.9583 32.0104" stroke="black" stroke-width="1.5" stroke-linecap="round" stroke-linejoin="round"/>
<path d="M16.0417 32.0104C16.0417 32.0104 11.6667 26.25 11.6667 17.5C11.6667 8.74998 16.0417 2.98956 16.0417 2.98956" stroke="black" stroke-width="1.5" stroke-linecap="round" stroke-linejoin="round"/>
<path d="M3.83542 22.6042H31.1646" stroke="black" stroke-width="1.5" stroke-linecap="round" stroke-linejoin="round"/>
<path d="M3.83542 12.3958H31.1646" stroke="black" stroke-width="1.5" stroke-linecap="round" stroke-linejoin="round"/>
</svg>
